<mxfile host="app.diagrams.net" modified="2023-12-27T14:38:08.032Z" agent="Mozilla/5.0 (Windows NT 10.0; Win64; x64) AppleWebKit/537.36 (KHTML, like Gecko) Chrome/120.0.0.0 Safari/537.36" etag="nD6ouwOd9SejIeMco9Rg" version="22.1.13" type="device">
  <diagram name="Página-1" id="9Q3r8Wk0-lh1teVZr32K">
    <mxGraphModel dx="2056" dy="539" grid="1" gridSize="10" guides="1" tooltips="1" connect="1" arrows="1" fold="1" page="1" pageScale="1" pageWidth="827" pageHeight="1169" math="0" shadow="0">
      <root>
        <mxCell id="0" />
        <mxCell id="1" parent="0" />
        <mxCell id="eI1Y7Oj-Ywm_kvhK_h1Y-1" value="&amp;lt;&amp;lt;Root&amp;gt;&amp;gt;&lt;br style=&quot;border-color: var(--border-color);&quot;&gt;&amp;lt;&amp;lt;Entity&amp;gt;&amp;gt;&lt;br style=&quot;border-color: var(--border-color);&quot;&gt;Utilizador" style="rounded=0;whiteSpace=wrap;html=1;" vertex="1" parent="1">
          <mxGeometry x="-317.5" y="435" width="120" height="60" as="geometry" />
        </mxCell>
        <mxCell id="eI1Y7Oj-Ywm_kvhK_h1Y-2" value="&amp;lt;&amp;lt;Value Object&amp;gt;&amp;gt;&lt;br style=&quot;border-color: var(--border-color);&quot;&gt;Email" style="rounded=0;whiteSpace=wrap;html=1;" vertex="1" parent="1">
          <mxGeometry x="-317.5" y="320" width="120" height="60" as="geometry" />
        </mxCell>
        <mxCell id="eI1Y7Oj-Ywm_kvhK_h1Y-3" value="" style="endArrow=diamondThin;endFill=1;endSize=24;html=1;rounded=0;exitX=0.5;exitY=0;exitDx=0;exitDy=0;entryX=0.5;entryY=1;entryDx=0;entryDy=0;" edge="1" parent="1" source="eI1Y7Oj-Ywm_kvhK_h1Y-1" target="eI1Y7Oj-Ywm_kvhK_h1Y-2">
          <mxGeometry width="160" relative="1" as="geometry">
            <mxPoint x="170" y="557" as="sourcePoint" />
            <mxPoint x="212.85000000000002" y="895.28" as="targetPoint" />
          </mxGeometry>
        </mxCell>
        <mxCell id="eI1Y7Oj-Ywm_kvhK_h1Y-4" value="&amp;lt;&amp;lt;Value Object&amp;gt;&amp;gt;&lt;br style=&quot;border-color: var(--border-color);&quot;&gt;Número de Contribuinte" style="rounded=0;whiteSpace=wrap;html=1;" vertex="1" parent="1">
          <mxGeometry x="-197.50000000000003" y="506.76" width="120" height="60" as="geometry" />
        </mxCell>
        <mxCell id="eI1Y7Oj-Ywm_kvhK_h1Y-5" value="" style="endArrow=diamondThin;endFill=1;endSize=24;html=1;rounded=0;exitX=0.5;exitY=1;exitDx=0;exitDy=0;entryX=0;entryY=0.5;entryDx=0;entryDy=0;" edge="1" parent="1" source="eI1Y7Oj-Ywm_kvhK_h1Y-1" target="eI1Y7Oj-Ywm_kvhK_h1Y-4">
          <mxGeometry width="160" relative="1" as="geometry">
            <mxPoint x="180" y="567" as="sourcePoint" />
            <mxPoint x="222.85000000000002" y="905.28" as="targetPoint" />
          </mxGeometry>
        </mxCell>
        <mxCell id="eI1Y7Oj-Ywm_kvhK_h1Y-6" value="&amp;lt;&amp;lt;Value Object&amp;gt;&amp;gt;&lt;br style=&quot;border-color: var(--border-color);&quot;&gt;Número de telefone" style="rounded=0;whiteSpace=wrap;html=1;" vertex="1" parent="1">
          <mxGeometry x="-280" y="590" width="120" height="60" as="geometry" />
        </mxCell>
        <mxCell id="eI1Y7Oj-Ywm_kvhK_h1Y-7" value="" style="endArrow=diamondThin;endFill=1;endSize=24;html=1;rounded=0;exitX=0.5;exitY=1;exitDx=0;exitDy=0;entryX=0.5;entryY=0;entryDx=0;entryDy=0;" edge="1" parent="1" source="eI1Y7Oj-Ywm_kvhK_h1Y-1" target="eI1Y7Oj-Ywm_kvhK_h1Y-6">
          <mxGeometry width="160" relative="1" as="geometry">
            <mxPoint x="190" y="577" as="sourcePoint" />
            <mxPoint x="232.85000000000002" y="915.28" as="targetPoint" />
          </mxGeometry>
        </mxCell>
        <mxCell id="eI1Y7Oj-Ywm_kvhK_h1Y-8" value="&amp;lt;&amp;lt;Value Object&amp;gt;&amp;gt;&lt;br style=&quot;border-color: var(--border-color);&quot;&gt;Password" style="rounded=0;whiteSpace=wrap;html=1;" vertex="1" parent="1">
          <mxGeometry x="-490" y="380" width="120" height="60" as="geometry" />
        </mxCell>
        <mxCell id="eI1Y7Oj-Ywm_kvhK_h1Y-9" value="" style="endArrow=diamondThin;endFill=1;endSize=24;html=1;rounded=0;entryX=1;entryY=0.5;entryDx=0;entryDy=0;exitX=0;exitY=0.5;exitDx=0;exitDy=0;" edge="1" parent="1" source="eI1Y7Oj-Ywm_kvhK_h1Y-1" target="eI1Y7Oj-Ywm_kvhK_h1Y-8">
          <mxGeometry width="160" relative="1" as="geometry">
            <mxPoint x="-260" y="567" as="sourcePoint" />
            <mxPoint x="-217.14999999999998" y="905.28" as="targetPoint" />
          </mxGeometry>
        </mxCell>
        <mxCell id="eI1Y7Oj-Ywm_kvhK_h1Y-10" value="&amp;lt;&amp;lt;Value Object&amp;gt;&amp;gt;&lt;br style=&quot;border-color: var(--border-color);&quot;&gt;Nome" style="rounded=0;whiteSpace=wrap;html=1;" vertex="1" parent="1">
          <mxGeometry x="-420" y="590" width="120" height="60" as="geometry" />
        </mxCell>
        <mxCell id="eI1Y7Oj-Ywm_kvhK_h1Y-11" value="" style="endArrow=diamondThin;endFill=1;endSize=24;html=1;rounded=0;exitX=0.5;exitY=1;exitDx=0;exitDy=0;entryX=0.5;entryY=0;entryDx=0;entryDy=0;" edge="1" parent="1" source="eI1Y7Oj-Ywm_kvhK_h1Y-1" target="eI1Y7Oj-Ywm_kvhK_h1Y-10">
          <mxGeometry width="160" relative="1" as="geometry">
            <mxPoint x="-387" y="596.88" as="sourcePoint" />
            <mxPoint x="102.85000000000002" y="1017.16" as="targetPoint" />
          </mxGeometry>
        </mxCell>
        <mxCell id="eI1Y7Oj-Ywm_kvhK_h1Y-12" value="&amp;lt;&amp;lt;Value Object&amp;gt;&amp;gt;&lt;br style=&quot;border-color: var(--border-color);&quot;&gt;Estado" style="rounded=0;whiteSpace=wrap;html=1;" vertex="1" parent="1">
          <mxGeometry x="-490" y="520" width="120" height="60" as="geometry" />
        </mxCell>
        <mxCell id="eI1Y7Oj-Ywm_kvhK_h1Y-13" value="&amp;lt;&amp;lt;Value Object&amp;gt;&amp;gt;&lt;br style=&quot;border-color: var(--border-color);&quot;&gt;Role" style="rounded=0;whiteSpace=wrap;html=1;" vertex="1" parent="1">
          <mxGeometry x="-520" y="450" width="120" height="60" as="geometry" />
        </mxCell>
        <mxCell id="eI1Y7Oj-Ywm_kvhK_h1Y-14" value="" style="endArrow=diamondThin;endFill=1;endSize=24;html=1;rounded=0;exitX=0;exitY=0.5;exitDx=0;exitDy=0;entryX=1;entryY=0.5;entryDx=0;entryDy=0;" edge="1" parent="1" source="eI1Y7Oj-Ywm_kvhK_h1Y-1" target="eI1Y7Oj-Ywm_kvhK_h1Y-13">
          <mxGeometry width="160" relative="1" as="geometry">
            <mxPoint x="-247" y="505" as="sourcePoint" />
            <mxPoint x="-340" y="620" as="targetPoint" />
          </mxGeometry>
        </mxCell>
        <mxCell id="eI1Y7Oj-Ywm_kvhK_h1Y-15" value="" style="endArrow=diamondThin;endFill=1;endSize=24;html=1;rounded=0;exitX=0;exitY=0.5;exitDx=0;exitDy=0;entryX=1;entryY=0.5;entryDx=0;entryDy=0;" edge="1" parent="1" source="eI1Y7Oj-Ywm_kvhK_h1Y-1" target="eI1Y7Oj-Ywm_kvhK_h1Y-12">
          <mxGeometry width="160" relative="1" as="geometry">
            <mxPoint x="-237" y="515" as="sourcePoint" />
            <mxPoint x="-330" y="630" as="targetPoint" />
          </mxGeometry>
        </mxCell>
        <mxCell id="eI1Y7Oj-Ywm_kvhK_h1Y-16" value="" style="shape=stencil(lZ3Z0iy3cYSfhrcT2Jdr2X4PRuhIZEjmYZCUl7c3YEbPzMns+UDecamavxsNFGrJyvou/+XXH77/+ct3Kfz62y9f//Hlv3/8628/fJf/7buUfvzphy+//Pjb+qfv8r9/l//yt6+/fPn7L1//9dNff//3n7/fkvuf/vPrf+1f+J/f9Xp5xLa1Uvjf3/9LfoT4///hP36X/+ePP73L50f/Vj49Rkb5FEW+FZBPj55EvlaUj0XkSwL5+Kj6/KmDfHjMKvJhonz+9vnjY7TP8m0+ehX5HlA+qnwj+aHvuxYA1r/1xzR52A9LPk+RL/T77VqOl3yG9V/yWd830/vWR+siH+n3q+7/JU/vWx4tinyg9y2P8O3zrw01QD4/SlN52M8t6XoG3m9ruxeVp/Vc2yuJfKf1fC73H5R//u83eVqf8ChR5eE8Lnlb/wHft85rO77Jg32r49GmysN+WPJBn3+Afav95nng+9b26PZ9Yf2XfBwqD+tfq+7/JQ/rv+SD7p8J+60Wf1+Uz49m+5+eJ1/m4w/KJ7X/R/lq+4Hk42PmPyefVR7X5/k53+Rp/4TLfP8x+1bmY6r9j2CvlnxVe55Ifjym2vPM8nmIfIHzVbr6G/Ha4J/k7T7q9DzN71OyP0u+6vvSfih2fiPeL6W6/xZgPyx52W/pujDv5cv1uG/+FcsX9Q8zfa/s/hh+33WfdpEnf7Kka/ne/FVaz+S/T/dpibof1h+k/RD1PC7/HO6jEtSe5MtB/iRfVD7B++Z5Pe5LvsD7LnnxDzP6n3moP5Mvh+6TfNb1IX8g9+t6fslPWM8ln7993+XQ0fo09WfKI9Hvt8v8veQznJe87t8q8oWeZ/m3QeQpXsjl+jwv+U7fy85jQf9hyYv9rLifc1J7VdH+5KT+fMV4IUe1t/U60PfyQe1DvRyQT/JZ5cmfTFP3T70u2E/y4m83jHfSUP+k4X5LXe/3hvZzycv7Nrwfk52Xhvbw9XqXfL82+L181fi3PxKtZ3nMIvKVfr+ofVgOBX1f81f79Qc/yUv8MnD/7+uwiHyh9YzXdnzJN3r+qPZqYDyy3E2JHyf6h0s+ZJGn/Rmn3r8T/bc4Lnf5JU/x0ZIX/ycGfIHYdUMvBXyDfl0Qbwr0CWKzFAfHDEshio/LSZFYzQnlrM5SCEUVKI0V1zWTVWHSIxWNI+Mzk3GvkO0vLM+PPpydtMiuXHxmMp8K6yfoHSz3shQyvUNUZ3q/FdyuS6EOVaD0wlJI8tIF7enaaj2qAu7WYAHKusFht87r597k6TNMDegj34BDL/AlTx7psK/c0GIPSwB3jGjGIwSVpwxYv+KRp/x4JFifflmfN/lGGXU7BhN3dbvi2Td5isiabdGJEXG7dsszYAqYka56oe0rC+XF1h0y9lUd2B1RUobwEeV5Mj6POSA7QqGIUgsI28MHO2cO/vZ4KaLUAGt9ETK8RR20vaNg/zzjqTd5stPZAvSON0fWBNj2iCji0P28PRzYz9kKVpMjDnWItstPEZbeY/lpUT/Ia8AdLwvzST6qPD+POICZ79Ws+/8VAn6QlwT5CkkTeYx6XpY8ZWzS5e895StHTLofcsWMRNIEfG74vZJ6c0u+UYRyxe9P+Y72P+l5X/L8++Xb85LHVXL8IK/77RBB6H2dJ1ZULaDfKSh83/CtfAkYESS9f0u8TsS9Q6P7rRw8V01olYT3b9T9UzJWSK1AVwquZ7xO65s83XdRE7SF93/U+7E0DpiuePxNvuLvi/0pHSsUUQvmhSP6eK3emzxl1KOGPmWg/xNtvw2s8Abbb8+U6if5oPJUkQxqD2vADEnQBOqSp/viWV9+ykf0/60gvOTJngQ9L5UrGhbALPnCzxNUnjLGQQvCu+QI++dOnvwNf56C/kZQ/2TJk78d1J+sFe3Ps/7+Jk/22fdPw/MYNAauHe2bAXaWfEd7LomFOjgoV/tQJyKmoiWk58F+SkTewuE+knizMcIk6n39gnh8sv+SoE3XE366X4bK036Luv83BAblxZ4seapoRy1YtYIZ/qT7YcnTeiZNrjWuICS9v5b8ZP9K5BveL0nv6yVP/km6Tt9TvmOuL2m83Ph+tCzZhqShfyj2qk205+aft3nwP6VA2gPGF1n9yc4Ioqz5rh4P8ab4Pz1dGZgP8vJ9lzz5t1kBFz0f4kfJL23IJ8fXsp4FERpZAR29MMJBz1c/5SvSUHna/0Xjnd5wfxZbn86IF80/LHlCwFrBtg/0lwygseSpAlXVPvd5yI/p931CVj/k6ySfMwIibJvml0Y4/L7EO4Pze03t/5Inf6ArYHkkXP+u8dSSp4qwARDGM0PyIT8s/sOSp/ho2PMUzP8M9a+WfIHnn+qfLHny96YCBgf7k1Pze0se/YegAefgBOUuYWRVoIxRfEKCnwodQcK7WjZUgarmu9BTVYGcAi8ljYPXmhQ3MthMeDlsTK4M5csteVOgwOpVmnpTIOxILPrSM/CXLvrSS4HQL7uOaQr4Haq+9Dxkj6qmgyaHt7Fd1vNNAf37pgHiTNcVca/Q1cJMxrwtBcGQTG4aicOK+pkfaegBWgp0acZnDuVNgaL0OLUsNgteI7tKFVSBtncKtlsLQ0OCZoKXAkYGUVPrs3Kq2cBOSwHRIck+XMVg0aOJpTBYQfCQs10B2L1CVsDiUqAP9yqfvSngSxeFMC0FzCAXO9MNS7jbZzMF/NJVncjZ0WlYXk9JqkAnbrtJUxWozLr9HnskrLsMLeQuBYTCjWvnvCkcsHBqNbh0sStpVRWwdmfJq3koJkatvsxnQ9a9gl3sc2C5Jlv9aykgAtYKkEuBIFC7/jZVATGzVsKeg0u0VoOfnFPLhnrfCmA1HJZ7UrC+m7OCGrLDOwzbGgeFaeb+qND/1F8o4e6lKRa25OlksEiJ5pwwHnDj612BGgqy5mcnx7fF3NCtwC0LEtFMrviXevMO5KwXA7lORkHuLhP7DhRkla5ZuZPC0ChrK1BjxNS62Fmh2ZmmR6pBK8mHVapWGtsK1Hxncdzhw+3Sk780JWOsmr8V4DzUrOmwrUDpm3z3pbkDL5pCogRUUcTeVuAewpsjSl+63phKVGhaZD2c6aWgXuXEKsdSuLEatDX6zW49KPiVhQpDgcRnBTfGqGDNBmeFm61B7dLhbmvAAVoKku46K7ipRIV49+HgiO56mnkCmKFMCnk6KzRbJcpRNitizMlt8fnG8lEf2S7C2TscGuk1yprYWbUUhjsnlCj2KGtg/NA8N8OOrpMTTO6GaAaW3QrUft9vwgHMjnc7cQPDsmYNPluBPpx7AlzQWwpS0dtBE3NiBIvjKGJfCsVWie7ppaCh5UBzv2uEQRXoPPRgTuLA3dqjpVoY1/oqK77H01SoiFdS4k2BIkXnVtkhPpU2PPvTcWt0Y69YCtRO6nQyS4F8je7efcP0aS9an18KdES7uz8Nc2Tdk8wNz0Ov1uPU0CNbClLTWQqUu+9Ni4izYhte93i6Yp9f73aAKm+Nbp5xxTPdPQCvfESH5TUKdnYsBc3CFSYnmlYdKJiQGt79ltHcLwXNwmUMB4bHQBnhVCPaOyTELw0D3Ezu1BpJEeiTORJ2gTWrAlmN4TmygBf7cDMTsM1612S/tRpjovUexqO1FLANyRqtB2dORtEc2WBPYCkIMmwMNDPDEiGjY7L/VSl+U8DeKGNnGg2Lzbu2PFSB0FhLQcLjpUD39DAn8fUT9wrWfbkUEq1S0yzcWjdcVqv4jYKmcjSrsWfuaTMWhL3h6TuY9R6Zd2tX7348O//vFYbGoiOhkzgs3zoSJjfH1LBsRHR/dr3bFPA7TDsPASOUaTXFDZYhsIa1Xy8FQo9vw9hVge6Hafj9znjzpSDwi31N0juYG9o5AF8K2vM/+JGM9KVzSDOzmpnOlaZ9jcs7dH6kcuXR3xQIurCr0fYXKK+xFKSgvZw6uhSXOyWX4kbK0XewtN1SoFal7XR+u1u3J0ur1Ix9oSL94y7MGloRT1w3OF7BAt4OYJIqkBs6LWLfMQutUtfgtWcsQu7IU/ZS4pcehqFM/NJDI5QDiHXnGOSIMs/kTnt0VaC2n2m4ts59w6/63psC3Q9zaq6yTUTmTePubJPfwcldBmJOtoKA7ztCqm4VKBFyo8DR7o0CM9rcKlBZ55X7fCow0OZWgcLjG4WM4cCNQsKmnlsFvONcIV6orD+6lyIWtF+F2acCx0CvdOylUCd6la907JsCOidD47g6EJv+yt++KRBu5kaBuwW3grSTHW5RIzirDUuE2/IJg1TFhrttW7sqHF5a7unKLTLb3H+7NXbPGj+S1FB2HZPvB9neNZ2+g26+yJavq++9FKimOLs1DgZs5N2ewFAFQmJPYwIqXNud3XpVB2Oxm27vMvhMN4V6FkZ5vbB1bwqU/Xmh954KDbPS02q75XCAqhZdCnOwbYxjVgX0KqtidAtzEOxEoymgJ1DUby0ZU4/T2loK5/lmsc2XMCE1jYijJN7expRRmJt1KUhIUzhtN41r4kVv+SnwU3KHic3Y89kr/KZAWYed+3S6A/oLxheQuR63c59GwIC2NWo4kDtfKJZkzoczbaTbL/zdx8yJKWAa25yTpYDJnKHRbq6n/JKENEsBU8DDiE6YWGR07ZzOBZ3EpaCPVDBNsdtUjBuFAOKjabNX5mb00TTvvRQoyhrGd5rZExjVCGeZlm1UTXktBTICwzrolgIhEYZxmueIGN1RjBMmYkizW7CqKhBycxjrUg78SEaLlAOi7ZaCJPuXAj5SVvjFbgXjR5I2q8QAwFej3VOBe5pG0mXdbG38FwQ3s+nXaLdaN/tmv6JHsvb9dLB8lqBNlV/akAjpYJfCBZV7KhTMa/RpnNbszfSpEUrKGHDsDPG31nv3jcAt2i3VsvvoubYrZmYT8VBt1wY/vJgePinIPZ0CJnO6AW12DxI/kvJLTqYGtN7SyHnvpSABR+wYcGyFpAo4b8fnzzQeGNSNI7PxBKOud1ysCExeClKqjYW3RjeC1sLfwaplMWNT4FKQiH23a/I7yFiZmPhMG49zZFrE3jVnHJnnp1vbYTycB2OmnOjBdQt2D6fBnJ+BQIeNgZFyH6I2e1N0VOdP0PQC7fyNzbXitrXNi6BU3RS/LXllBsIAsVvbAxOp9Ko5n8O1Y6MmCl613ZgbMuO0DA/BbL3dRjclDKu6UeEzMdzGvunvk6t9N3qNwBZ38hQsbHlhBsXItmej0sYMXbfwPzIxbvbRKeQYbV4THeV1kB/2PGSvDLHDo1x6UfBXYi+qmHPK9s1GkSV0fnvRRBsT3XZrtD0QYWRNbB/PS9PnP+0H3c94X1hRn9vge9Ybj4uk3ZhTGbCy5XU9Keuy5W3/0Pc15qHIPnVWe84wvW6YOCaW7TYagUcrvcrkb/K8/n9O3ph7Egcp1e0zFUWWfNX7hYi3etW6f0ZYWG8++gX93KahKI9+6U2ZpQ542+b+A/onxtxzdOwlr8nwlO2A6mgT9E+6rs8Bq271n86YasfM8SjTbrA/JMLrhhvhURk7FLPBFIkWaOiFFJl6esefFjPgFTxsXMHBp/HxHemE8VYjl09RukZWBzd02AQ8nqCwMw1iRys2M/ZhIwIqex5D85PxcHSGkf53zOL2ofDO15yUj/kY+XCDT5uhNSN3e/Wp6cY4EWHXp/m7gQM+z1rxcNOdFxMPgafjvqCWbwoIbA/mM/L8vBEUYZcYO7Y7EuQvHKDCQQteqTAC20bMpoKGbCkIhX7iESQjKg4xVUx+jKQF4MQkgsPouBKzuA+jxU+M7BruzQ6uzFh4kyYT0xVLXU/c3t4vsAlY6KWL1X4CukjDUgiZxwMvBS2eRnRiloIELZvihd6haco0cyJtWNonc1w3bB5U5kBk2EzSXVKjVbLcXs6ILR5GDpQZrjAsi7sLj1SkGJqsyIWrGsPmaDDIadiVlTntOwySlysmRIZ1oW4iHFCYwap8XMSeRqaemRtxWjkqN8YGWFPpYRzFNIKjwzyK6QMvDvgGY/jdVDuE7LJAPnMr+sy2vSeDL607vvAUuRs0TjghinSsQ0QncSOKuipQOD+r3kCF80cbFWWIIkQJ1hvMEiJ/qyGKmPXvxS33VOBhSdPHs/KZnka8VpgOfDcLB1U4YPjEapTG36HbhIqGiYMbHOIBFG49D6Vj6WT3PIjCYHSaxaJl4JU1LbQshyM6tJ2+Mm/xHOrC1YAtn9OCpsNki2mzz2tC6h7vSKiHRg+7sjZdEP8FuR9qOfULCOSiHuiCpw3krYx0nJo2rEwIuRR0IkY7gfN1xEg/tWGowmBzPy01NpCkeisYdB4v9qk8CHVyl9HUGKgFTLXMqbu1BYb/TxstfGxhUIVjk4QrHL60KhwbPVTh2EriCodmFVXgdpgYgtZtDh03dxrc1HOnwVfEvQayPd9oDHaPjTq8MS3StGH2jWfxzakmvAesCU8jtTtMj3Dz1w9tCdP6DSOmmV/sVU+FxP23llnrmRvjhlqzzpT102Kznk9XqfSTvIr1nxSCKaAv2vV27zxIfnbrg64YLm4/Tr50493a9CpdCtiAYgWg3tgdMITHrnkcPHZrOia01qZkSaqAl0Sx8ROMstmBUFQFvKytjH7qFs/WispMHNNGcnYekTuzEmB1nhk1bWhOn/yljXNlcG1nWkp0J3q5y0AM2U70soJyffCU8hlsfsChnyTYWAauAE9jIxyJMc/miw6OkYdP02DQwfBxHcy9730Mg7G2O7OWVAFzqN0mrDDccVjH+2Ck1w39SGVUtYW8gzu4RtM01jhk/JuxiXBmbad1gyrgl25ql/Zb0SMZPmBw7+pSqPYXkAam2juME3+PDgNivsNh5n4wD+sw9rXBVe3dWiEEWExwslsrjAuqcuVFKee4DO7kUTNy9SgblX7kolyy4RXs841khHBcN1+WVJnxM3pke2qTKVBX5u5j8Ikd9A5B8SCTuzK7zw+oeOJuCOEq3kB96InbvaYHSH9UBewBcJBHYxSh5e4mG7LukyIa45bMVM4DpL/ZiWsnJJVSh/NM4A3VqqpABa1e7Ex33N69GGdjZ3Sgm5nOXQZGKfRKkn5SEDf0RQzzSUHZzHkUXU/2HQY2M3UbbnmYp9HNDZ1c2+lW+58HVH800lNm3O02Tmxy/PBKGbwpIM3wNPpC5o3ZPDRGu43szdYuNblXohnq6UAS36xz6EDW34xu4ZXp+KSQ7C9Q4NcsAJ+TiYzvSOLJE9h5N1MgSHSrZow5IdUMIfFKUX1S8L+AlNX5Zq4JJfCbezNMA9PuJnYQENPpz99yhZ80nGEdqcDvONzxme5Y4imFdctDf1C4WVf6cndc+qRwy9Z/UPB5AKhwN3HgoOAzDVDhbmoCjda6ncuACneTHw4KbjboQNxOr6AL4nY+xkHhZmuAcb2d8UFZ5tspImQ2bueUUIX3dhIKFRRuZ60Qxuh2mgvZytt5MeSt306kOSj4bqWo6XaqzkHh5qVha9xOBqIr6Hb2ECpYI8BZQSdaHhSMNvhVYL1XKDd7iVKJxcZkv8rQnxR0CALTJ2w0jivQI8WbrUF4hBJv7BKhBYqN5j04TLcTy3Bc3t1MNFS4m7pGeezbuW4HBR+iRn2yt7PpyA/Nd+PBqDCaq7YcHFzjPcHPbCvF+Llo79NkKr9sELrJk7JeENX3iIMeKVmSbPI0yDvrTWFWDjZQY+AtuhlTTIHsUpo3ITsZgWSdHHPgbt1TOW1OCU5HNRKiF1vsvYKHWQyGWQrJsjnk8yWDAe7UCc9fTaZAhmx3wllyhvIUqdi4i47JymTkaJOz/cm6r3eSjBSSmZmGmZDkcxmYS3/3g9okFHzpeDMHl05cCuYJ8HD4TbFic0roBkrBIsWKJY44zbZWrCfEqVX5XePm6dme+CZzH62CNwvipGLXuv/M6KxHD5oyLmt0I5AZL9SsTMM9CrHaPc38hdEvRe6ziNV8De7k2DQxSRWoILcUtOoS8cqK2e5p7jCL2SY0BWyrix5lMe1XTJoO3QU5+g4OReBZjTHa1ASeuhaNIXEXxWlZo16KY2C9OQY9QIMvlKUglm9z9RHYwSZ2NIYNWi8xj4wyUNhg5n1jMR5MojR03w2etWRkirtuS6UH+wCHLlw1L4Mhasa0O5hO1Xz6jeugvKxiu5Y8OUkWAgzGkvvUmoi/X23/BESEVo30Brf2VYOmMXd+0fJy5+GPFp8fUGA2jfKASyuaYXgRZt27/no79YaXfjYkXsMr3LhvOheWs6FG2WsxrpA9BoNiIz2/PaMPnw2fmXE9kyZhO5PB2K3U+bJP2qDSI55f4wXujPlIel4638NJcQCNe22TkfdzQS8p91AbuH+i7uc2cNxr1Oh9Dypl+ajy/PvyfU8Ids1Btob2MKqz2HjqV9T66JJHT079gVYOvy8N57vvgDwUGz3CDblRuaJawvMbtETdmJjDsJstYsOLpVpaROxC0ELTHl4B39dIUiufr6Ao4zrxvgsKlK7sghpGoHYEzgXdD7UjVCOoPakNe2+ClnMq95RY7bEyANMYw2tBnz5oI2flkXfWS3KYWHEnT0BeSxvszjv8Xvr86U+uT8R6tK9/xPMe9L6oEe1tUHuyh2Hg+mijYcD7KFjf7UQUjnEWL3lqmzFak8KgHatkFEa+Bk3clo5lt6D+/5IneIzZn93Ti+dR/MPSMIEZtDZUKtZVDAS15Hn/iD9fnmwin+4XWZ+MNZKomfbde873o8kT+WW0/RY526SZncLdEDbcu3A8Zd0WeeJ6Rm1vytxPHY3Bnme4R6O2GJw2Mjp6hktG3Q+5oz9gAKDc8PeTzcjgsbDpZvgD7QcrTm2uEJQXwGrm+MuSakueKC2SFi0zk+MmG0XB58tGcmYeFmP8SDlivjgZDUngMpaRTjGuKOl+S4caraIoEvuHFi8fyKedq5fb4rIm7BOjiw0rnDoieS3/kBgUbvmNxHWZbN+LySadG7fgfW3165QxPjV4d2J/zwqIiVvXbUBUipi/sglUiYmvqo3OCGg/q/H3TYzXrPV0yZN/3jTeiYPRkBqv7ckFhM/UwmEcmG83CpT4ZNv8IK+kjoc5B3rfxcbdL3reXwWyT/l2eZ6K8YLzM1bmYtD6duSh5lPz/7Ewf4va8yWPBUYjNtzFNHI4LMKOPLRkKUjKKGaksIzms0ZmQozRRijkUyVMUJkx460ak4a1kTmx1/9WOtTEtedkJOmJC73OCs+RbTQk3SaNPVRVqyrQ3RSN+DlyJ3K0SQcxIBBoH8aqCphutdkRe//SKhkZ8lLABKo15TISNRrBEvddRiOF4OFOcVotnJ9/WmM0ooGTN4NjwnVHiMq2jAWK6NNBKAHsHjt3cyVjuWPKre2h6TQRSkDuCpdUNLBDblfoksijg18148EjApO1QzcG8hgrZuPvZRyXzMaxb3D9fSKGS9aHz0NI13YPKo/704De3Iqag75vRRjfkh/6PHQes1VACmMjLeJm9vkl31SeHJacNYIuvD7WxV0QQLHZRCWjhQWZbHSKGRPq2Zr1MybIc7MJmQgYyc0ibkSwZGPP5+kFe8aoPg+upw0zyxjwZbtfMp7HPC1iQoc0T22h52klxYmzOaAM6tZwh36J6r8mxE8Xa9BPmDAoVqHmoZjFKvIRu6KKTT+KWODyBoqI910puv4RE35LXqe88fpXi4B4/W2odOQEQNOKfER7UppPS6KEazEaUXZZS1d/L3AfkY2oC5gwKHbeAwYaxbgX2CEuBqUPaH+K+ZMB/YFq8SQz/C55sScBE8zVKgjc8lqj+oeM26xJp9Ec5SWEOchbBvIoLxmqg3zRDPZhfWyI71FeMk4H+ebnBZ+/aYUl4P1Vrc0oIOCxDvU3AqY7qs03DdiPUOfN83A7c7D9Q4DKZz7/7XxRy7chRvg8NpsqEZgywXIvAeO7ZiMiAo6LbdbvFLAg2bIi0LjA3ooiBALeRxuPpN+L4sFWNWMZMA+05G3/UwK12X3H86ubDT0I6P8363MKTA5hk24D+s+by1TXn+K7ZtNn+D5txm0aeFpYUM4Q9h961IpVZNogy4dEnm6VLBmK8f6SF3/mOD3Op9kxGY5WZDD+7XYfJfQ3usWP7M9v/K3GIwdCoqq/j9PsilX0TvxF0tB5mGZ68/s4be7m+cn/vFsfnFRdbDY8T1MzxDjzMHaLR5hEt9sEiKN81PzA4XkO8usffv7+tx9+/5e//fjPf/762y9f//Hl/f//7esvX/7+y9d//fTX53/69Yfvf/6y/u3/AA==);lineShape=1;" vertex="1" parent="1">
          <mxGeometry x="-542.5568302200213" y="303.9989755760189" width="473.86606319946816" height="385.0999935174408" as="geometry" />
        </mxCell>
      </root>
    </mxGraphModel>
  </diagram>
</mxfile>
